<svg width="139" height="141" viewBox="0 0 139 141" fill="none" xmlns="http://www.w3.org/2000/svg">
<path d="M129.779 49.287C148.33 81.417 135.114 110.467 113.761 135.218C112.635 136.501 111.102 137.356 109.419 137.64C77.2802 143.857 45.5142 140.778 26.9642 108.648L0.994222 63.666C0.010222 61.962 -0.256775 59.936 0.253225 58.036C0.762225 56.135 2.00523 54.514 3.71023 53.53C16.5622 46.11 28.1742 29.124 33.7162 12.901C34.4062 10.952 35.7692 9.31298 37.5602 8.27898C39.3502 7.24498 41.4512 6.88397 43.4842 7.26197C60.4062 10.601 80.8212 9.00997 93.6732 1.58997C95.3772 0.605973 97.4032 0.338983 99.3042 0.847983C101.205 1.35798 102.825 2.60098 103.809 4.30598L129.779 49.287Z" fill="#EFEFEF"/>
<path d="M124.626 52.0749C141.589 81.4549 129.9 107.791 110.845 130.153C109.84 131.311 108.464 132.078 106.95 132.323C78.0332 137.736 49.3812 134.692 32.4192 105.311L8.67122 64.1789C7.77122 62.6209 7.51522 60.7749 7.96022 59.0489C8.40522 57.3239 9.51321 55.8579 11.0412 54.9759C22.5672 48.3209 32.9042 32.9519 37.7752 18.2309C38.3812 16.4619 39.5972 14.9809 41.2032 14.0539C42.8092 13.1269 44.6992 12.8149 46.5342 13.1729C61.8102 16.3409 80.1972 15.0489 91.7232 8.39387C93.2512 7.51187 95.0752 7.28387 96.7922 7.76187C98.5092 8.23987 99.9792 9.38487 100.878 10.9429L124.626 52.0749Z" fill="white"/>
<g filter="url(#filter0_ii_22_5407)">
<path d="M71.1192 71.9188C72.0382 71.3888 72.3522 70.2148 71.8222 69.2958C71.2922 68.3778 70.1172 68.0628 69.1992 68.5928C68.2802 69.1238 67.9662 70.2978 68.4962 71.2168C69.0262 72.1348 70.2012 72.4498 71.1192 71.9188Z" fill="url(#paint0_linear_22_5407)"/>
<path d="M76.0392 53.5569L52.7562 66.9988C50.9192 68.0598 50.2902 70.4088 51.3502 72.2458L59.0322 85.5498C60.0922 87.3868 62.4412 88.0168 64.2782 86.9558L87.5622 73.5139C89.3992 72.4529 90.0282 70.1038 88.9672 68.2668L81.2862 54.9618C80.2252 53.1248 77.8762 52.4959 76.0392 53.5569Z" fill="url(#paint1_linear_22_5407)"/>
<path d="M56.0822 65.0789L53.2022 60.0889C51.9292 57.8839 51.5842 55.2629 52.2432 52.8029C52.9022 50.3439 54.5112 48.2459 56.7162 46.9729C58.9222 45.6999 61.5432 45.3549 64.0022 46.0139C66.4622 46.6729 68.5592 48.2819 69.8332 50.4879L72.7132 55.4769" fill="url(#paint2_linear_22_5407)"/>
</g>
<g filter="url(#filter1_ii_22_5407)">
<path d="M76.5992 110.782C75.7992 111.244 74.9742 111.541 74.1262 111.673C73.2822 111.802 72.4742 111.769 71.7002 111.575C70.9262 111.38 70.1922 111.01 69.5002 110.465C68.8072 109.92 68.2162 109.225 67.7282 108.379C67.0762 107.25 66.7462 106.117 66.7382 104.981C66.7282 103.84 67.0132 102.797 67.5962 101.853C68.1832 100.906 69.0142 100.123 70.0872 99.503C71.3122 98.796 72.5572 98.472 73.8202 98.533C75.0842 98.593 76.2102 99.03 77.1992 99.843L75.5202 101.845C74.9122 101.353 74.2342 101.085 73.4882 101.044C72.7412 101.002 72.0112 101.187 71.2972 101.6C70.3252 102.161 69.7092 102.942 69.4502 103.942C69.1902 104.943 69.3732 105.985 69.9992 107.068C70.6252 108.152 71.4372 108.834 72.4362 109.114C73.4372 109.387 74.4212 109.244 75.3882 108.686C76.0972 108.276 76.6202 107.738 76.9572 107.071C77.2972 106.396 77.4052 105.671 77.2832 104.898L79.8572 104.445C80.0662 105.708 79.8822 106.904 79.3062 108.034C78.7262 109.158 77.8242 110.074 76.5992 110.782ZM88.2892 104.032C87.4892 104.494 86.6652 104.791 85.8162 104.923C84.9732 105.052 84.1642 105.02 83.3902 104.825C82.6162 104.631 81.8832 104.261 81.1902 103.716C80.4972 103.171 79.9072 102.475 79.4192 101.63C78.7672 100.501 78.4372 99.3679 78.4292 98.2319C78.4182 97.0899 78.7042 96.048 79.2862 95.104C79.8742 94.157 80.7042 93.374 81.7782 92.754C83.0032 92.046 84.2472 91.723 85.5112 91.783C86.7742 91.844 87.9012 92.28 88.8902 93.093L87.2112 95.0959C86.6022 94.6029 85.9252 94.336 85.1782 94.294C84.4322 94.253 83.7022 94.438 82.9882 94.85C82.0162 95.411 81.4002 96.1919 81.1402 97.1929C80.8812 98.1929 81.0642 99.235 81.6902 100.319C82.3152 101.402 83.1272 102.084 84.1272 102.365C85.1282 102.637 86.1122 102.494 87.0792 101.936C87.7882 101.527 88.3112 100.989 88.6482 100.321C88.9872 99.646 89.0962 98.922 88.9732 98.149L91.5472 97.696C91.7562 98.959 91.5732 100.155 90.9962 101.284C90.4172 102.409 89.5142 103.325 88.2892 104.032ZM93.2602 86.327C94.3082 85.722 95.3482 85.577 96.3812 85.892C97.4102 86.203 98.2152 86.8589 98.7932 87.8609C99.3812 88.8789 99.5482 89.9 99.2952 90.923C99.0402 91.942 98.3832 92.757 97.3242 93.368L95.0382 94.688L97.3102 98.6219L95.0312 99.937L88.6952 88.963L93.2602 86.327ZM95.8442 91.681C96.4012 91.359 96.7372 90.976 96.8522 90.532C96.9642 90.082 96.8732 89.605 96.5812 89.098C96.2972 88.607 95.9312 88.299 95.4802 88.174C95.0322 88.041 94.5322 88.134 93.9812 88.453L92.0742 89.5529L93.9382 92.781L95.8442 91.681ZM110.998 90.7189L108.894 88.916L104.284 91.578L104.793 94.3009L102.461 95.647L100.165 82.34L102.953 80.731L113.329 89.373L110.998 90.7189ZM103.851 89.285L107.125 87.396L102.804 83.683L103.851 89.285Z" fill="url(#paint3_linear_22_5407)"/>
</g>
<defs>
<filter id="filter0_ii_22_5407" x="50.8353" y="41.9436" width="38.6475" height="49.2708" filterUnits="userSpaceOnUse" color-interpolation-filters="sRGB">
<feFlood flood-opacity="0" result="BackgroundImageFix"/>
<feBlend mode="normal" in="SourceGraphic" in2="BackgroundImageFix" result="shape"/>
<feColorMatrix in="SourceAlpha" type="matrix" values="0 0 0 0 0 0 0 0 0 0 0 0 0 0 0 0 0 0 127 0" result="hardAlpha"/>
<feOffset dy="-3.74321"/>
<feGaussianBlur stdDeviation="1.8716"/>
<feComposite in2="hardAlpha" operator="arithmetic" k2="-1" k3="1"/>
<feColorMatrix type="matrix" values="0 0 0 0 0.206024 0 0 0 0 0.575929 0 0 0 0 1 0 0 0 0.5 0"/>
<feBlend mode="normal" in2="shape" result="effect1_innerShadow_22_5407"/>
<feColorMatrix in="SourceAlpha" type="matrix" values="0 0 0 0 0 0 0 0 0 0 0 0 0 0 0 0 0 0 127 0" result="hardAlpha"/>
<feOffset dy="3.74321"/>
<feGaussianBlur stdDeviation="1.8716"/>
<feComposite in2="hardAlpha" operator="arithmetic" k2="-1" k3="1"/>
<feColorMatrix type="matrix" values="0 0 0 0 0.130706 0 0 0 0 0.365382 0 0 0 0 0.680265 0 0 0 0.5 0"/>
<feBlend mode="normal" in2="effect1_innerShadow_22_5407" result="effect2_innerShadow_22_5407"/>
</filter>
<filter id="filter1_ii_22_5407" x="66.738" y="76.9878" width="46.5913" height="38.5054" filterUnits="userSpaceOnUse" color-interpolation-filters="sRGB">
<feFlood flood-opacity="0" result="BackgroundImageFix"/>
<feBlend mode="normal" in="SourceGraphic" in2="BackgroundImageFix" result="shape"/>
<feColorMatrix in="SourceAlpha" type="matrix" values="0 0 0 0 0 0 0 0 0 0 0 0 0 0 0 0 0 0 127 0" result="hardAlpha"/>
<feOffset dy="-3.74321"/>
<feGaussianBlur stdDeviation="1.8716"/>
<feComposite in2="hardAlpha" operator="arithmetic" k2="-1" k3="1"/>
<feColorMatrix type="matrix" values="0 0 0 0 0.206024 0 0 0 0 0.575929 0 0 0 0 1 0 0 0 0.5 0"/>
<feBlend mode="normal" in2="shape" result="effect1_innerShadow_22_5407"/>
<feColorMatrix in="SourceAlpha" type="matrix" values="0 0 0 0 0 0 0 0 0 0 0 0 0 0 0 0 0 0 127 0" result="hardAlpha"/>
<feOffset dy="3.74321"/>
<feGaussianBlur stdDeviation="1.8716"/>
<feComposite in2="hardAlpha" operator="arithmetic" k2="-1" k3="1"/>
<feColorMatrix type="matrix" values="0 0 0 0 0.130706 0 0 0 0 0.365382 0 0 0 0 0.680265 0 0 0 0.5 0"/>
<feBlend mode="normal" in2="effect1_innerShadow_22_5407" result="effect2_innerShadow_22_5407"/>
</filter>
<linearGradient id="paint0_linear_22_5407" x1="56.7162" y1="46.9728" x2="75.9202" y2="80.2348" gradientUnits="userSpaceOnUse">
<stop stop-color="#2363B9"/>
<stop offset="1" stop-color="#328DFF"/>
</linearGradient>
<linearGradient id="paint1_linear_22_5407" x1="56.7162" y1="46.9729" x2="75.9202" y2="80.2348" gradientUnits="userSpaceOnUse">
<stop stop-color="#2363B9"/>
<stop offset="1" stop-color="#328DFF"/>
</linearGradient>
<linearGradient id="paint2_linear_22_5407" x1="56.7162" y1="46.9729" x2="75.9202" y2="80.2349" gradientUnits="userSpaceOnUse">
<stop stop-color="#2363B9"/>
<stop offset="1" stop-color="#328DFF"/>
</linearGradient>
<linearGradient id="paint3_linear_22_5407" x1="82.8142" y1="85.052" x2="95.3142" y2="106.702" gradientUnits="userSpaceOnUse">
<stop stop-color="#2363B9"/>
<stop offset="1" stop-color="#328DFF"/>
</linearGradient>
</defs>
</svg>
