<svg width="119" height="149" viewBox="0 0 119 149" fill="none" xmlns="http://www.w3.org/2000/svg">
<path d="M118.716 81.6241C118.716 118.724 92.7462 137.274 61.8782 148.034C60.2622 148.581 58.5062 148.555 56.9072 147.959C25.9652 137.274 -0.00479126 118.724 -0.00479126 81.6241V29.6836C-0.00479126 27.7157 0.777213 25.8284 2.16821 24.4368C3.56021 23.0453 5.44722 22.2636 7.41522 22.2636C22.2552 22.2636 40.8052 13.3595 53.7162 2.081C55.2882 0.737997 57.2882 0 59.3552 0C61.4232 0 63.4232 0.737997 64.9942 2.081C77.9802 13.4337 96.4562 22.2636 111.296 22.2636C113.264 22.2636 115.151 23.0453 116.542 24.4368C117.934 25.8284 118.716 27.7157 118.716 29.6836V81.6241Z" fill="#EFEFEF"/>
<path d="M112.557 81.4906C112.557 115.235 89.3702 132.108 61.8102 141.893C60.3672 142.392 58.7992 142.368 57.3712 141.826C29.7452 132.108 6.55722 115.235 6.55722 81.4906V34.2485C6.55722 32.4586 7.2552 30.742 8.4982 29.4763C9.7402 28.2107 11.4252 27.4996 13.1822 27.4996C26.4322 27.4996 42.9952 19.401 54.5222 9.1427C55.9262 7.9212 57.7112 7.25 59.5572 7.25C61.4032 7.25 63.1892 7.9212 64.5922 9.1427C76.1862 19.4685 92.6822 27.4996 105.932 27.4996C107.689 27.4996 109.374 28.2107 110.617 29.4763C111.859 30.742 112.557 32.4586 112.557 34.2485V81.4906Z" fill="white"/>
<mask id="mask0_22_5396" style="mask-type:luminance" maskUnits="userSpaceOnUse" x="27" y="48" width="65" height="53">
<path d="M91.5817 48.4331H27.1332V100.817H91.5817V48.4331Z" fill="white"/>
</mask>
<g mask="url(#mask0_22_5396)">
<g filter="url(#filter0_ii_22_5396)">
<path d="M90.5902 69.0791C89.9762 67.4691 88.7162 66.0311 87.1832 64.9951C82.7572 62.1841 76.0112 61.9841 71.4502 64.5251C68.9632 65.7931 67.3282 68.3021 66.8192 70.8871C65.8962 75.1331 66.1352 80.1851 69.4062 83.3681C73.2202 86.7111 78.7722 87.4501 83.7092 86.0771C83.9432 86.0311 84.6862 85.8441 85.1992 85.5721L85.3432 85.5101C86.8772 84.8731 88.3392 83.8361 89.4312 82.4311C91.9502 78.7471 92.1232 73.2281 90.5902 69.0791ZM82.5522 78.6141C82.3782 79.4191 81.8362 80.2541 80.9822 80.5561C79.6222 81.1541 77.7832 80.9891 76.5232 80.2891C75.4662 79.5501 75.3302 78.3131 75.1942 77.1431C75.0912 74.8361 74.9252 72.3931 75.5712 70.2831C76.0772 68.9771 77.4752 68.6411 78.7382 68.5421C80.0652 68.5421 81.3572 68.7451 82.1772 69.8151C82.6872 70.5831 82.6562 71.5871 82.7572 72.4921C82.7212 74.3981 82.8922 76.6721 82.5522 78.6141ZM42.1952 80.6921C41.0702 80.6231 39.8102 80.7221 38.7222 80.5881L38.7552 68.8401L38.8242 68.7421L42.1952 68.7101C42.2302 66.8031 42.2632 64.7581 42.1602 63.0201L29.3232 62.9841L27.2092 63.0201C27.1752 64.7931 27.1752 66.8651 27.2092 68.6741C28.3682 68.7101 29.4562 68.6741 30.5802 68.7791V80.1571L30.5472 80.6241L27.1752 80.6931C27.1052 82.5331 27.1052 84.3751 27.1752 86.2151H42.1942L42.1952 80.6921ZM79.9952 88.7221C78.5662 90.7661 76.7612 92.7401 74.7902 94.2751C74.7182 94.3801 74.5142 94.3401 74.4502 94.2441C73.5952 93.7101 72.6762 93.2731 71.8572 92.7401C72.9482 91.4361 74.0052 90.1311 74.8222 88.6861H73.7632C72.9162 89.9291 72.0292 91.2331 70.9062 92.3341C69.4062 91.7331 68.0452 91.1981 66.5122 90.7931L66.3422 90.6661C66.5802 89.9901 67.0222 89.3551 67.1572 88.6851H66.2382L65.3192 90.4931C63.3122 90.0581 61.0972 89.8211 59.0542 89.6891C58.9502 89.3891 59.0862 88.9541 58.9502 88.6851H58.0652C57.9952 89.0871 58.1672 89.3911 57.9632 89.7241C55.8512 89.8211 53.8082 90.0581 51.8352 90.4641L50.9122 88.6851C50.5752 88.6851 50.1962 88.6211 49.9612 88.7211L50.8112 90.6951L50.7092 90.7931C49.1832 91.2351 47.6822 91.7611 46.2142 92.3681L46.0792 92.3001C45.1232 91.2621 44.2032 90.1291 43.4532 88.9911C43.2842 88.4191 42.6032 88.7531 42.2282 88.6861C43.0422 90.1611 44.1352 91.4641 45.2232 92.8051C44.3042 93.3421 43.3882 93.9411 42.4302 94.3801C40.3472 92.7931 38.5312 90.8841 37.0512 88.7241C36.6422 88.6581 36.3722 88.6881 35.9602 88.7241C38.4122 92.5391 42.2282 95.8841 46.2122 97.8591C46.2122 97.8591 46.2122 97.8291 46.2492 97.8291C46.2782 97.8291 46.3462 97.8911 46.2782 97.9261C48.9702 99.2321 51.8332 100.168 54.8612 100.572C65.3172 101.942 75.2972 97.4941 81.0832 88.7241C80.7212 88.6861 80.3572 88.6861 79.9952 88.7221ZM65.7972 91.7341L65.8972 91.6661C67.3652 92.0011 68.7592 92.4701 70.0542 93.1041C68.9632 94.3391 67.5662 95.4131 66.2742 96.3161C65.4912 96.7831 64.7052 97.2901 63.8872 97.6891L62.4262 97.0531L62.5262 96.8221C63.7542 95.1831 64.8442 93.5081 65.7972 91.7341ZM59.0862 90.7291C61.0282 90.7661 62.9702 90.9661 64.7732 91.3991L64.8082 91.5011C63.8572 93.3061 62.6622 95.0501 61.3702 96.6861C60.7882 96.7551 60.2452 96.5241 59.6672 96.4881L59.0852 96.4191C59.0182 94.4441 58.9832 92.7041 59.0862 90.7291ZM52.5162 91.3311C54.2872 90.9961 56.1252 90.7291 58.0312 90.7291L58.0662 96.3911C57.3492 96.5531 56.5662 96.5531 55.8852 96.7251C54.4882 95.0801 53.3322 93.3061 52.3452 91.4641L52.5162 91.3311ZM47.0302 93.1401C48.3612 92.5021 49.7562 92.0311 51.1842 91.6661L51.3222 91.7011C52.3072 93.5421 53.5352 95.2811 54.7602 97.0211C54.2872 97.2911 53.7052 97.4521 53.2302 97.7241C50.9272 96.5861 48.8312 95.0701 47.0312 93.2381V93.1401H47.0302ZM51.4252 98.8621C48.5642 98.1231 45.9052 96.8521 43.4542 95.1151V95.0111C44.2712 94.5141 45.0922 93.9771 45.9742 93.6051C47.9172 95.5171 49.9242 96.9571 52.1042 98.3261C51.9342 98.5271 51.6622 98.7281 51.4252 98.8621ZM64.0582 99.2941C60.4492 100.069 56.4292 100.099 52.8212 99.2301C52.7522 99.0641 52.9912 99.0281 53.0922 98.9301C56.2602 96.8861 61.1962 96.8861 64.2982 99.0931C64.3992 99.2941 64.1272 99.2301 64.0582 99.2941ZM67.3292 98.3611L65.7282 98.8611C65.4552 98.7281 65.2182 98.5271 64.9772 98.3251L65.0462 98.2231C67.2262 96.9561 69.2002 95.4121 71.0742 93.5721C71.9942 93.9391 72.8802 94.4441 73.7002 95.0101C71.7912 96.5241 69.5762 97.5231 67.3292 98.3611ZM36.9852 60.4411C37.8272 59.2761 38.7482 58.1691 39.7422 57.1301C40.6252 56.2931 41.4452 55.4901 42.4002 54.8851C43.2862 55.4541 44.2732 55.9271 45.1242 56.4601C44.0692 57.7591 42.9792 59.0701 42.1952 60.4721C42.4322 60.5771 42.8772 60.5441 43.2182 60.4721C44.0692 59.2361 44.9852 57.9981 46.0792 56.8931C47.5402 57.4301 48.9722 57.9971 50.4732 58.4001L50.6052 58.5331L49.7572 60.4721C50.1332 60.5441 50.3712 60.5091 50.7432 60.4721C51.0492 59.9071 51.2862 59.2731 51.6262 58.7001C53.6042 59.1371 55.6822 59.3701 57.7942 59.4351C58.0642 59.6731 57.8612 60.1721 57.9632 60.4721H58.8822C58.9832 60.1431 58.8482 59.7711 58.9832 59.4731C60.9602 59.3691 63.0362 59.1681 64.9502 58.6991L65.1162 58.7341L66.0352 60.4701C66.3422 60.4701 66.7502 60.5421 66.9892 60.4021L66.1352 58.4661L66.2062 58.3991C67.7702 57.9971 69.2372 57.3951 70.7352 56.7941C71.7942 57.8971 72.7792 59.2021 73.6672 60.4701C74.0402 60.4701 74.4152 60.5061 74.6882 60.4011C74.2672 59.6541 73.7772 58.9481 73.2232 58.2941C72.7732 57.6531 72.2712 57.0501 71.7222 56.4921V56.3181L74.1062 54.9491L74.4502 54.8151C76.5242 56.3841 78.3382 58.2691 79.8282 60.4011C80.2362 60.4011 80.5782 60.5411 80.9192 60.3731C76.3512 53.5511 68.8262 49.1621 60.6912 48.5311L60.6552 48.5961L60.5852 48.5311C59.6672 48.4321 58.5392 48.3931 57.5522 48.4921C57.1792 48.4631 56.7372 48.4921 56.2932 48.5311C48.1212 49.1621 40.5962 53.3481 35.8942 60.4731C36.2342 60.4411 36.6432 60.5771 36.9852 60.4411ZM51.1202 57.5011L50.9842 57.5301C49.5862 57.1661 48.2222 56.7261 46.9282 56.1591L46.9942 55.9591C48.8672 54.1851 50.8422 52.7121 53.0212 51.5761C53.5352 51.7771 54.0452 51.9431 54.5552 52.1811L54.4552 52.4421C53.1592 54.0521 52.1402 55.7891 51.1202 57.5011ZM57.8952 58.4021C56.9442 58.5351 56.0922 58.3721 55.1352 58.2981C54.2192 58.1631 53.0592 58.0661 52.1402 57.7611C53.1282 55.9291 54.2872 54.1521 55.6822 52.5161L57.8632 52.8131C57.9632 54.5511 57.8952 56.5601 57.8952 58.4021ZM58.9502 58.4381C58.8822 56.6581 58.9182 54.6871 58.9502 52.8451C59.6332 52.7481 60.3792 52.6441 61.0622 52.5451C62.3902 54.2161 63.6872 55.9291 64.5732 57.7611C62.7322 58.2061 60.8442 58.4331 58.9502 58.4381ZM69.8172 56.0911C68.4862 56.6581 67.1222 57.1941 65.6602 57.5011C64.6052 55.7271 63.4482 53.9541 62.1502 52.2401C62.6272 51.9781 63.2092 51.7771 63.7192 51.5111C65.9372 52.6141 68.0802 54.1851 69.8832 55.9871L69.8172 56.0911ZM65.4552 50.3691C68.3162 51.1071 71.0062 52.3771 73.4592 54.1171L73.3912 54.2511L71.0432 55.5541H70.8702C69.0672 53.7541 66.9572 52.1811 64.8082 50.9391C64.8762 50.7051 65.2192 50.5361 65.4552 50.3691ZM64.0942 50.0331V50.1041C61.1292 52.2401 56.3292 52.4421 53.1972 50.4671C53.0212 50.3341 52.6852 50.2691 52.6492 50.0341C56.2612 49.2011 60.5152 49.1341 64.0942 50.0331ZM43.3182 54.1851C45.4662 52.6141 47.8492 51.4431 50.3702 50.6391C50.4732 50.5341 50.5392 50.4361 50.6732 50.4361V50.5051C50.9452 50.5701 51.1512 50.2671 51.3882 50.4661C51.5942 50.6391 51.8342 50.7711 52.0022 50.9381C49.8922 52.2401 47.8142 53.7831 45.9062 55.6531C44.9862 55.3241 44.1382 54.8191 43.3182 54.2511V54.1851ZM57.9302 80.9531C54.7292 81.8251 51.2532 81.1611 48.9382 78.7471C48.6672 78.4131 48.4952 78.0141 48.2222 77.6811L43.6262 77.7131C43.5532 80.4231 43.5212 83.5361 43.6262 86.2141L48.7322 86.1811L48.8002 84.5741C49.3812 84.8411 49.9612 85.1751 50.5392 85.4751C54.0802 86.9501 58.6402 87.2841 62.1482 85.4751C64.7052 84.0731 66.0672 81.3641 65.6922 78.4461C65.3192 75.6051 62.5932 73.0271 59.8372 72.3261L51.5932 69.9481L50.9832 69.6451C50.7102 69.4131 50.5392 69.1141 50.6062 68.7421C51.2532 67.6411 52.7532 67.9751 53.8772 68.0051C56.2612 68.3411 58.7122 69.1441 60.1092 71.3201C61.6062 71.3201 63.3422 71.3491 64.9762 71.2851C65.0452 68.5421 64.9492 66.1341 64.9092 63.3551C63.3762 63.3201 61.5022 63.3201 59.9722 63.3901C59.9032 63.7881 60.0382 64.3551 59.8672 64.7581L58.3022 63.9211C54.5542 62.3491 49.3092 62.1851 45.9042 64.6281C43.6902 66.2311 43.0112 69.1121 43.5902 71.6551C44.0302 74.0601 46.3462 75.8361 48.5612 76.6701C51.5912 77.7401 54.7572 78.5141 57.8272 79.5501C58.1312 79.6861 58.5392 79.9891 58.4742 80.3571C58.4752 80.6541 58.1672 80.8261 57.9302 80.9531Z" fill="url(#paint0_linear_22_5396)"/>
</g>
</g>
<defs>
<filter id="filter0_ii_22_5396" x="27.1227" y="44.6914" width="64.4489" height="59.8685" filterUnits="userSpaceOnUse" color-interpolation-filters="sRGB">
<feFlood flood-opacity="0" result="BackgroundImageFix"/>
<feBlend mode="normal" in="SourceGraphic" in2="BackgroundImageFix" result="shape"/>
<feColorMatrix in="SourceAlpha" type="matrix" values="0 0 0 0 0 0 0 0 0 0 0 0 0 0 0 0 0 0 127 0" result="hardAlpha"/>
<feOffset dy="-3.74321"/>
<feGaussianBlur stdDeviation="1.8716"/>
<feComposite in2="hardAlpha" operator="arithmetic" k2="-1" k3="1"/>
<feColorMatrix type="matrix" values="0 0 0 0 0.206024 0 0 0 0 0.575929 0 0 0 0 1 0 0 0 0.5 0"/>
<feBlend mode="normal" in2="shape" result="effect1_innerShadow_22_5396"/>
<feColorMatrix in="SourceAlpha" type="matrix" values="0 0 0 0 0 0 0 0 0 0 0 0 0 0 0 0 0 0 127 0" result="hardAlpha"/>
<feOffset dy="3.74321"/>
<feGaussianBlur stdDeviation="1.8716"/>
<feComposite in2="hardAlpha" operator="arithmetic" k2="-1" k3="1"/>
<feColorMatrix type="matrix" values="0 0 0 0 0.130706 0 0 0 0 0.365382 0 0 0 0 0.680265 0 0 0 0.5 0"/>
<feBlend mode="normal" in2="effect1_innerShadow_22_5396" result="effect2_innerShadow_22_5396"/>
</filter>
<linearGradient id="paint0_linear_22_5396" x1="59.3472" y1="48.4341" x2="59.3472" y2="100.816" gradientUnits="userSpaceOnUse">
<stop stop-color="#2363B9"/>
<stop offset="1" stop-color="#328DFF"/>
</linearGradient>
</defs>
</svg>
